<svg width="40" height="40" viewBox="0 0 40 40" fill="none" xmlns="http://www.w3.org/2000/svg">
<g clip-path="url(#clip0_107_884)">
<path d="M20 0C8.95437 0 0 8.95437 0 20C0 31.0456 8.95437 40 20 40C31.0456 40 40 31.0456 40 20C40 8.95437 31.0456 0 20 0ZM20 38.7506C9.645 38.7506 1.25 30.355 1.25 20C1.25 9.645 9.645 1.25 20 1.25C30.355 1.25 38.75 9.645 38.75 20C38.75 30.355 30.355 38.7506 20 38.7506Z" fill="black"/>
<path d="M27.5 19.375H20.625V12.5H19.375V19.375H12.5V20.625H19.375V27.5H20.625V20.625H27.5V19.375Z" fill="black"/>
</g>
<defs>
<clipPath id="clip0_107_884">
<rect width="40" height="40" fill="white"/>
</clipPath>
</defs>
</svg>
